# xmcd CD database file
#
# Track frame offsets:
#	150
#	12945
#	33565
#	61395
#	78080
#	101105
#	121077
#	133947
#	157627
#	169230
#	192500
#	214040
#	235545
#	265597
#	286807
#
# Disc length: 4016 seconds
#
# Revision: 0
# Processed by: cddbd v1.5.1PL0 Copyright (c) Steve Scherf et al.
# Submitted via: CDex 1.51
#
DISCID=c10fae0f
DTITLE=Phil Varca and The SlamJammers - Ready, Willing and Able
DYEAR=1900
DGENRE=Blues
TTITLE0=Struttin'
TTITLE1=Maybe
TTITLE2=Don't Push Me
TTITLE3=(Please) Say That You Will
TTITLE4=Smoothtalk
TTITLE5=Skin On Skin
TTITLE6=That Ain't Love
TTITLE7=Feel It Now
TTITLE8=Runaway Shuffle
TTITLE9=Cash
TTITLE10=Come and Get It
TTITLE11=Peaches
TTITLE12=Rain
TTITLE13=Summertime
TTITLE14=Barnyard Stomp
EXTD=
EXTT0=
EXTT1=
EXTT2=
EXTT3=
EXTT4=
EXTT5=
EXTT6=
EXTT7=
EXTT8=
EXTT9=
EXTT10=
EXTT11=
EXTT12=
EXTT13=
EXTT14=
PLAYORDER=
